<svg xmlns="http://www.w3.org/2000/svg" width="71" height="77" viewBox="0 0 71 77" fill="none">
<rect x="0.5" y="0.5" width="44" height="64" stroke="#212B32" stroke-dasharray="8 2"/>
<path d="M64.5 16.2071V71.5H20.5V7.5H55.7929L64.5 16.2071Z" fill="white" stroke="#212B32"/>
<path d="M64.5 16.2071V16.5H56C55.7239 16.5 55.5 16.2761 55.5 16V7.5H55.7929L64.5 16.2071Z" fill="white" stroke="#212B32"/>
<rect x="29" y="27" width="27" height="1" fill="#212B32"/>
<rect x="29" y="32" width="27" height="1" fill="#212B32"/>
<rect x="29" y="37" width="27" height="1" fill="#212B32"/>
<path d="M59.7278 56.9467L45 52L49.9467 66.7278L53.2071 63.4675L60.7396 71L64 67.7396L56.4675 60.2071L59.7278 56.9467Z" fill="#212B32"/>
<circle cx="63" cy="69" r="7.5" fill="#212B32" stroke="white"/>
<path fill-rule="evenodd" clip-rule="evenodd" d="M63 65C62.7239 65 62.5 65.2239 62.5 65.5V68.5H59.5C59.2239 68.5 59 68.7239 59 69C59 69.2761 59.2239 69.5 59.5 69.5H62.5V72.5C62.5 72.7761 62.7239 73 63 73C63.2761 73 63.5 72.7761 63.5 72.5V69.5H66.5C66.7761 69.5 67 69.2761 67 69C67 68.7239 66.7761 68.5 66.5 68.5H63.5V65.5C63.5 65.2239 63.2761 65 63 65Z" fill="white"/>
</svg>